<svg width="256" height="256" viewBox="0 0 256 256" xmlns="http://www.w3.org/2000/svg">
  <defs>
    <clipPath id="c"><rect x="0" y="0" width="256" height="256" rx="40"/></clipPath>
  </defs>

  <!-- Fond -->
  <rect x="0" y="0" width="256" height="256" rx="40" fill="#0B2545"/>

  <!-- Montagne -->
  <polygon points="30,230 90,128 122,160 164,98 202,145 230,230" fill="#163A6B" clip-path="url(#c)"/>

  <!-- Remplissage crue -->
  <path d="M0,210 Q40,195 62,205 Q85,218 102,192 Q115,172 124,155 Q132,140 140,146 Q150,156 160,178 Q172,202 192,193 Q210,184 232,197 Q246,206 256,205 L256,256 L0,256 Z"
        fill="#1A6BB5" opacity="0.55" clip-path="url(#c)"/>

  <!-- Hydrogramme -->
  <path d="M8,222 C20,220 38,216 55,211 C67,207 76,199 85,186 C94,173 101,155 111,144 C120,133 127,129 135,133 C143,138 150,152 159,170 C168,188 177,204 192,210 C207,216 220,213 238,209 C247,207 252,205 256,204"
        fill="none" stroke="#5BB8F5" stroke-width="4" stroke-linecap="round" stroke-linejoin="round" clip-path="url(#c)"/>

  <!-- Point peak -->
  <circle cx="135" cy="133" r="5.5" fill="#F0C040" clip-path="url(#c)"/>

  <!-- Ligne verticale peak -->
  <line x1="135" y1="145" x2="135" y2="230" stroke="#F0C040" stroke-width="1.2" stroke-dasharray="5,4" opacity="0.7" clip-path="url(#c)"/>

  <!-- Seuils horizontaux -->
  <line x1="4" y1="192" x2="252" y2="192" stroke="#FFDD57" stroke-width="1.2" stroke-dasharray="7,5" opacity="0.6" clip-path="url(#c)"/>
  <line x1="4" y1="170" x2="252" y2="170" stroke="#FF9800" stroke-width="1.2" stroke-dasharray="7,5" opacity="0.6" clip-path="url(#c)"/>
  <line x1="4" y1="150" x2="252" y2="150" stroke="#E53935" stroke-width="1.2" stroke-dasharray="7,5" opacity="0.6" clip-path="url(#c)"/>

  <!-- Pastilles seuils -->
  <circle cx="240" cy="192" r="5.5" fill="#FFDD57" clip-path="url(#c)"/>
  <circle cx="240" cy="170" r="5.5" fill="#FF9800" clip-path="url(#c)"/>
  <circle cx="240" cy="150" r="5.5" fill="#E53935" clip-path="url(#c)"/>

  <!-- Goutte d'eau -->
  <path d="M32,22 C32,22 18,41 18,50 C18,59 24,66 32,66 C40,66 46,59 46,50 C46,41 32,22 32,22 Z" fill="#5BB8F5" clip-path="url(#c)"/>

  <!-- Bordure -->
  <rect x="0" y="0" width="256" height="256" rx="40" fill="none" stroke="#2A5FA8" stroke-width="2.5"/>
</svg>
